<mxfile host="app.diagrams.net" modified="2021-05-11T00:46:49.115Z" agent="5.0 (Windows NT 10.0; Win64; x64) AppleWebKit/537.36 (KHTML, like Gecko) Chrome/90.0.4430.93 Safari/537.36" etag="tVJFMV_iwlzIus7hrKr8" version="14.6.11" type="github" pages="4">
  <diagram id="iIvviFvLuS96hQga9YzX" name="Page-1">
    <mxGraphModel dx="1422" dy="794" grid="1" gridSize="10" guides="1" tooltips="1" connect="1" arrows="1" fold="1" page="1" pageScale="1" pageWidth="850" pageHeight="1100" math="0" shadow="0">
      <root>
        <mxCell id="0" />
        <mxCell id="1" parent="0" />
        <mxCell id="85nIfcuF4aMPqUK1M5kb-3" value="" style="verticalLabelPosition=bottom;verticalAlign=top;html=1;shape=mxgraph.basic.corner_round_rect;dx=6;strokeColor=#AF45ED;fontColor=#095C86;fillColor=#F694C1;" parent="1" vertex="1">
          <mxGeometry x="5" y="70" width="830" height="150" as="geometry" />
        </mxCell>
        <mxCell id="85nIfcuF4aMPqUK1M5kb-4" value="" style="verticalLabelPosition=bottom;verticalAlign=top;html=1;shape=mxgraph.basic.patternFillRect;fillStyle=diag;step=5;fillStrokeWidth=0.2;fillStrokeColor=#dddddd;fillColor=#F694C1;strokeColor=#AF45ED;fontColor=#095C86;" parent="1" vertex="1">
          <mxGeometry x="10" y="10" width="830" height="50" as="geometry" />
        </mxCell>
        <mxCell id="85nIfcuF4aMPqUK1M5kb-5" value="" style="verticalLabelPosition=bottom;shadow=0;dashed=0;align=center;html=1;verticalAlign=top;strokeWidth=1;shape=mxgraph.mockup.containers.userMale;strokeColor2=#008cff;fillColor=#F694C1;strokeColor=#AF45ED;fontColor=#095C86;" parent="1" vertex="1">
          <mxGeometry x="20" y="250" width="210" height="230" as="geometry" />
        </mxCell>
        <mxCell id="85nIfcuF4aMPqUK1M5kb-7" value="" style="verticalLabelPosition=bottom;verticalAlign=top;html=1;shape=mxgraph.basic.patternFillRect;fillStyle=diag;step=5;fillStrokeWidth=0.2;fillStrokeColor=#dddddd;align=center;fillColor=#F694C1;strokeColor=#AF45ED;fontColor=#095C86;" parent="1" vertex="1">
          <mxGeometry x="260" y="250" width="570" height="230" as="geometry" />
        </mxCell>
        <mxCell id="85nIfcuF4aMPqUK1M5kb-8" value="" style="verticalLabelPosition=bottom;verticalAlign=top;html=1;shape=mxgraph.basic.smiley;fillColor=#F694C1;strokeColor=#AF45ED;fontColor=#095C86;" parent="1" vertex="1">
          <mxGeometry x="810" y="220" width="30" height="30" as="geometry" />
        </mxCell>
        <mxCell id="85nIfcuF4aMPqUK1M5kb-11" value="" style="verticalLabelPosition=bottom;verticalAlign=top;html=1;shape=mxgraph.basic.patternFillRect;fillStyle=diag;step=5;fillStrokeWidth=0.2;fillStrokeColor=#dddddd;fillColor=#F694C1;strokeColor=#AF45ED;fontColor=#095C86;" parent="1" vertex="1">
          <mxGeometry x="20" y="490" width="820" height="230" as="geometry" />
        </mxCell>
        <mxCell id="85nIfcuF4aMPqUK1M5kb-12" value="" style="shape=ext;double=1;whiteSpace=wrap;html=1;fillColor=#F694C1;strokeColor=#AF45ED;fontColor=#095C86;" parent="1" vertex="1">
          <mxGeometry x="20" y="730" width="820" height="230" as="geometry" />
        </mxCell>
        <mxCell id="85nIfcuF4aMPqUK1M5kb-13" value="" style="shape=actor;whiteSpace=wrap;html=1;fillColor=#F694C1;strokeColor=#AF45ED;fontColor=#095C86;" parent="1" vertex="1">
          <mxGeometry x="810" y="690" width="30" height="40" as="geometry" />
        </mxCell>
        <mxCell id="85nIfcuF4aMPqUK1M5kb-14" value="" style="verticalLabelPosition=top;shadow=0;dashed=0;align=center;html=1;verticalAlign=bottom;strokeWidth=1;shape=mxgraph.mockup.misc.pin;fillColor2=#dd0000;fillColor3=#440000;fillColor=#F694C1;strokeColor=#AF45ED;fontColor=#095C86;" parent="1" vertex="1">
          <mxGeometry x="230" y="465" width="10" height="25" as="geometry" />
        </mxCell>
        <mxCell id="85nIfcuF4aMPqUK1M5kb-23" value="" style="verticalLabelPosition=bottom;verticalAlign=top;html=1;shape=mxgraph.basic.rect;fillColor2=none;strokeWidth=1;size=20;indent=5;fillColor=#F694C1;strokeColor=#AF45ED;fontColor=#095C86;" parent="1" vertex="1">
          <mxGeometry y="990" width="850" height="110" as="geometry" />
        </mxCell>
        <mxCell id="85nIfcuF4aMPqUK1M5kb-24" value="" style="shape=link;html=1;fontColor=#095C86;strokeColor=#0A0A0A;" parent="1" edge="1">
          <mxGeometry width="100" relative="1" as="geometry">
            <mxPoint x="10" y="980" as="sourcePoint" />
            <mxPoint x="10" y="230" as="targetPoint" />
            <Array as="points">
              <mxPoint x="10" y="670" />
            </Array>
          </mxGeometry>
        </mxCell>
        <mxCell id="85nIfcuF4aMPqUK1M5kb-26" value="" style="shape=link;html=1;strokeColor=#60E696;fontColor=#095C86;" parent="1" edge="1">
          <mxGeometry width="100" relative="1" as="geometry">
            <mxPoint x="20" y="970" as="sourcePoint" />
            <mxPoint x="840" y="970" as="targetPoint" />
            <Array as="points">
              <mxPoint x="400" y="970" />
            </Array>
          </mxGeometry>
        </mxCell>
        <mxCell id="85nIfcuF4aMPqUK1M5kb-27" value="" style="shape=link;html=1;strokeColor=#60E696;fontColor=#095C86;" parent="1" edge="1">
          <mxGeometry width="100" relative="1" as="geometry">
            <mxPoint x="10" y="230" as="sourcePoint" />
            <mxPoint x="800" y="230" as="targetPoint" />
          </mxGeometry>
        </mxCell>
        <mxCell id="85nIfcuF4aMPqUK1M5kb-29" value="" style="shape=link;html=1;strokeColor=#60E696;fontColor=#095C86;" parent="1" edge="1">
          <mxGeometry width="100" relative="1" as="geometry">
            <mxPoint x="250" y="480" as="sourcePoint" />
            <mxPoint x="250" y="240" as="targetPoint" />
          </mxGeometry>
        </mxCell>
        <mxCell id="85nIfcuF4aMPqUK1M5kb-30" value="&lt;h1&gt;Heading&lt;/h1&gt;&lt;p&gt;Lorem ipsum dolor sit amet, consectetur adipisicing elit, sed do eiusmod tempor incididunt ut labore et dolore magna aliqua.&lt;/p&gt;" style="text;html=1;spacing=5;spacingTop=-20;whiteSpace=wrap;overflow=hidden;fontColor=#095C86;" parent="1" vertex="1">
          <mxGeometry x="10" y="70" width="820" height="110" as="geometry" />
        </mxCell>
        <mxCell id="Q9UPj83FMvId3U2_WXxF-1" value="who i am" style="text;html=1;strokeColor=none;fillColor=none;align=center;verticalAlign=middle;whiteSpace=wrap;rounded=0;sketch=0;fontColor=#095C86;" parent="1" vertex="1">
          <mxGeometry x="510" y="350" width="110" height="20" as="geometry" />
        </mxCell>
        <mxCell id="Q9UPj83FMvId3U2_WXxF-2" value="" style="rounded=0;whiteSpace=wrap;html=1;sketch=0;fillColor=#F694C1;strokeColor=#AF45ED;fontColor=#095C86;" parent="1" vertex="1">
          <mxGeometry x="40" y="15" width="110" height="40" as="geometry" />
        </mxCell>
        <mxCell id="Q9UPj83FMvId3U2_WXxF-3" value="" style="rounded=0;whiteSpace=wrap;html=1;sketch=0;fillColor=#F694C1;strokeColor=#AF45ED;fontColor=#095C86;" parent="1" vertex="1">
          <mxGeometry x="250" y="15" width="110" height="40" as="geometry" />
        </mxCell>
        <mxCell id="Q9UPj83FMvId3U2_WXxF-4" value="" style="rounded=0;whiteSpace=wrap;html=1;sketch=0;fillColor=#F694C1;strokeColor=#AF45ED;fontColor=#095C86;" parent="1" vertex="1">
          <mxGeometry x="490" y="15" width="110" height="40" as="geometry" />
        </mxCell>
        <mxCell id="Q9UPj83FMvId3U2_WXxF-5" value="" style="rounded=0;whiteSpace=wrap;html=1;sketch=0;fillColor=#F694C1;strokeColor=#AF45ED;fontColor=#095C86;" parent="1" vertex="1">
          <mxGeometry x="700" y="15" width="110" height="40" as="geometry" />
        </mxCell>
        <mxCell id="RPBK3kxVjvi2O2fSwu0h-2" value="Homepage" style="text;html=1;strokeColor=none;fillColor=none;align=center;verticalAlign=middle;whiteSpace=wrap;rounded=0;sketch=0;fontColor=#095C86;" parent="1" vertex="1">
          <mxGeometry x="75" y="25" width="40" height="20" as="geometry" />
        </mxCell>
        <mxCell id="RPBK3kxVjvi2O2fSwu0h-5" value="hobbies and intrests" style="text;html=1;strokeColor=none;fillColor=none;align=center;verticalAlign=middle;whiteSpace=wrap;rounded=0;sketch=0;fontColor=#095C86;" parent="1" vertex="1">
          <mxGeometry x="285" y="27.5" width="40" height="15" as="geometry" />
        </mxCell>
        <mxCell id="RPBK3kxVjvi2O2fSwu0h-6" style="edgeStyle=orthogonalEdgeStyle;curved=0;rounded=1;sketch=0;orthogonalLoop=1;jettySize=auto;html=1;exitX=0.5;exitY=0;exitDx=0;exitDy=0;entryX=0.25;entryY=0;entryDx=0;entryDy=0;fontColor=#095C86;strokeColor=#60E696;fillColor=#F694C1;" parent="1" source="RPBK3kxVjvi2O2fSwu0h-5" target="RPBK3kxVjvi2O2fSwu0h-5" edge="1">
          <mxGeometry relative="1" as="geometry" />
        </mxCell>
        <mxCell id="RPBK3kxVjvi2O2fSwu0h-7" value="Culture/ethnicity" style="text;html=1;strokeColor=none;fillColor=none;align=center;verticalAlign=middle;whiteSpace=wrap;rounded=0;sketch=0;fontColor=#095C86;" parent="1" vertex="1">
          <mxGeometry x="520" y="27.5" width="40" height="20" as="geometry" />
        </mxCell>
        <mxCell id="RPBK3kxVjvi2O2fSwu0h-8" value="contact me" style="text;html=1;strokeColor=none;fillColor=none;align=center;verticalAlign=middle;whiteSpace=wrap;rounded=0;sketch=0;fontColor=#095C86;" parent="1" vertex="1">
          <mxGeometry x="735" y="25" width="40" height="20" as="geometry" />
        </mxCell>
        <mxCell id="YtmhF-Kyt8YfJTzSN0Yw-1" value="F694C1&lt;br&gt;" style="text;html=1;strokeColor=none;fillColor=none;align=center;verticalAlign=middle;whiteSpace=wrap;rounded=0;" vertex="1" parent="1">
          <mxGeometry x="410" y="180" width="40" height="20" as="geometry" />
        </mxCell>
        <mxCell id="YtmhF-Kyt8YfJTzSN0Yw-2" value="" style="strokeWidth=1;shadow=0;dashed=0;align=center;html=1;shape=mxgraph.mockup.containers.browserWindow;rSize=0;strokeColor=#666666;strokeColor2=#008cff;strokeColor3=#c4c4c4;mainText=,;recursiveResize=0;fillColor=#F694C1;" vertex="1" parent="1">
          <mxGeometry x="115" y="210" width="630" height="540" as="geometry" />
        </mxCell>
        <mxCell id="YtmhF-Kyt8YfJTzSN0Yw-3" value="Page 1" style="strokeWidth=1;shadow=0;dashed=0;align=center;html=1;shape=mxgraph.mockup.containers.anchor;fontSize=17;fontColor=#666666;align=left;" vertex="1" parent="YtmhF-Kyt8YfJTzSN0Yw-2">
          <mxGeometry x="60" y="12" width="110" height="26" as="geometry" />
        </mxCell>
        <mxCell id="YtmhF-Kyt8YfJTzSN0Yw-4" value="https://www.draw.io" style="strokeWidth=1;shadow=0;dashed=0;align=center;html=1;shape=mxgraph.mockup.containers.anchor;rSize=0;fontSize=17;fontColor=#666666;align=left;" vertex="1" parent="YtmhF-Kyt8YfJTzSN0Yw-2">
          <mxGeometry x="130" y="60" width="250" height="26" as="geometry" />
        </mxCell>
        <mxCell id="YtmhF-Kyt8YfJTzSN0Yw-5" value="" style="rounded=0;whiteSpace=wrap;html=1;fillColor=#F694C1;" vertex="1" parent="YtmhF-Kyt8YfJTzSN0Yw-2">
          <mxGeometry x="15" y="120" width="605" height="400" as="geometry" />
        </mxCell>
      </root>
    </mxGraphModel>
  </diagram>
  <diagram id="Ft8AheevjA-AXgiFyaQ_" name="Page-2">
    <mxGraphModel dx="1422" dy="794" grid="1" gridSize="10" guides="1" tooltips="1" connect="1" arrows="1" fold="1" page="1" pageScale="1" pageWidth="850" pageHeight="1100" math="0" shadow="0">
      <root>
        <mxCell id="CULfx13F6MtaiZrSoTQx-0" />
        <mxCell id="CULfx13F6MtaiZrSoTQx-1" parent="CULfx13F6MtaiZrSoTQx-0" />
        <mxCell id="PeBa_i2BfMXo3NvaFNoU-1" value="" style="shape=process;whiteSpace=wrap;html=1;backgroundOutline=1;rounded=0;sketch=0;fillColor=#F694C1;strokeColor=#AF45ED;fontColor=#095C86;" parent="CULfx13F6MtaiZrSoTQx-1" vertex="1">
          <mxGeometry y="60" width="850" height="80" as="geometry" />
        </mxCell>
        <mxCell id="PeBa_i2BfMXo3NvaFNoU-2" value="&lt;h1&gt;Heading&lt;/h1&gt;&lt;p&gt;Lorem ipsum dolor sit amet, consectetur adipisicing elit, sed do eiusmod tempor incididunt ut labore et dolore magna aliqua.&lt;/p&gt;" style="text;html=1;strokeColor=none;fillColor=none;spacing=5;spacingTop=-20;whiteSpace=wrap;overflow=hidden;rounded=0;sketch=0;fontColor=#095C86;" parent="CULfx13F6MtaiZrSoTQx-1" vertex="1">
          <mxGeometry x="90" y="60" width="670" height="120" as="geometry" />
        </mxCell>
        <mxCell id="PeBa_i2BfMXo3NvaFNoU-3" value="" style="swimlane;startSize=0;rounded=0;sketch=0;fillColor=#F694C1;strokeColor=#AF45ED;fontColor=#095C86;" parent="CULfx13F6MtaiZrSoTQx-1" vertex="1">
          <mxGeometry x="80" y="160" width="690" height="740" as="geometry" />
        </mxCell>
        <mxCell id="PeBa_i2BfMXo3NvaFNoU-4" value="" style="whiteSpace=wrap;html=1;aspect=fixed;rounded=0;sketch=0;fillColor=#F694C1;strokeColor=#AF45ED;fontColor=#095C86;" parent="PeBa_i2BfMXo3NvaFNoU-3" vertex="1">
          <mxGeometry x="490" y="40" width="180" height="180" as="geometry" />
        </mxCell>
        <mxCell id="PeBa_i2BfMXo3NvaFNoU-5" value="" style="whiteSpace=wrap;html=1;aspect=fixed;rounded=0;sketch=0;fillColor=#F694C1;strokeColor=#AF45ED;fontColor=#095C86;" parent="PeBa_i2BfMXo3NvaFNoU-3" vertex="1">
          <mxGeometry x="490" y="250" width="180" height="180" as="geometry" />
        </mxCell>
        <mxCell id="PeBa_i2BfMXo3NvaFNoU-6" value="" style="whiteSpace=wrap;html=1;aspect=fixed;rounded=0;sketch=0;fillColor=#F694C1;strokeColor=#AF45ED;fontColor=#095C86;" parent="PeBa_i2BfMXo3NvaFNoU-3" vertex="1">
          <mxGeometry x="490" y="460" width="180" height="180" as="geometry" />
        </mxCell>
        <mxCell id="PeBa_i2BfMXo3NvaFNoU-7" value="Actor" style="shape=umlActor;verticalLabelPosition=bottom;verticalAlign=top;html=1;outlineConnect=0;rounded=0;sketch=0;fillColor=#F694C1;strokeColor=#AF45ED;fontColor=#095C86;" parent="PeBa_i2BfMXo3NvaFNoU-3" vertex="1">
          <mxGeometry x="650" y="680" width="30" height="60" as="geometry" />
        </mxCell>
        <mxCell id="PeBa_i2BfMXo3NvaFNoU-8" value="Actor" style="shape=umlActor;verticalLabelPosition=bottom;verticalAlign=top;html=1;outlineConnect=0;rounded=0;sketch=0;fillColor=#F694C1;strokeColor=#AF45ED;fontColor=#095C86;" parent="PeBa_i2BfMXo3NvaFNoU-3" vertex="1">
          <mxGeometry x="600" y="680" width="30" height="60" as="geometry" />
        </mxCell>
        <mxCell id="_AJyBTycwzbB2AfMxVxu-1" value="pictures" style="text;html=1;strokeColor=none;fillColor=none;align=center;verticalAlign=middle;whiteSpace=wrap;rounded=0;fontColor=#095C86;" parent="PeBa_i2BfMXo3NvaFNoU-3" vertex="1">
          <mxGeometry x="560" y="120" width="40" height="20" as="geometry" />
        </mxCell>
        <mxCell id="_AJyBTycwzbB2AfMxVxu-8" value="pictures" style="text;html=1;strokeColor=none;fillColor=none;align=center;verticalAlign=middle;whiteSpace=wrap;rounded=0;fontColor=#095C86;" parent="PeBa_i2BfMXo3NvaFNoU-3" vertex="1">
          <mxGeometry x="560" y="330" width="40" height="20" as="geometry" />
        </mxCell>
        <mxCell id="_AJyBTycwzbB2AfMxVxu-9" value="pictures" style="text;html=1;strokeColor=none;fillColor=none;align=center;verticalAlign=middle;whiteSpace=wrap;rounded=0;fontColor=#095C86;" parent="PeBa_i2BfMXo3NvaFNoU-3" vertex="1">
          <mxGeometry x="560" y="540" width="40" height="20" as="geometry" />
        </mxCell>
        <mxCell id="_AJyBTycwzbB2AfMxVxu-10" value="" style="rounded=1;whiteSpace=wrap;html=1;fillColor=#F694C1;strokeColor=#AF45ED;fontColor=#095C86;" parent="PeBa_i2BfMXo3NvaFNoU-3" vertex="1">
          <mxGeometry x="40" y="40" width="430" height="180" as="geometry" />
        </mxCell>
        <mxCell id="_AJyBTycwzbB2AfMxVxu-21" value="" style="rounded=1;whiteSpace=wrap;html=1;fillColor=#F694C1;strokeColor=#AF45ED;fontColor=#095C86;" parent="PeBa_i2BfMXo3NvaFNoU-3" vertex="1">
          <mxGeometry x="40" y="250" width="430" height="180" as="geometry" />
        </mxCell>
        <mxCell id="_AJyBTycwzbB2AfMxVxu-22" value="" style="rounded=1;whiteSpace=wrap;html=1;fillColor=#F694C1;strokeColor=#AF45ED;fontColor=#095C86;" parent="PeBa_i2BfMXo3NvaFNoU-3" vertex="1">
          <mxGeometry x="40" y="470" width="430" height="180" as="geometry" />
        </mxCell>
        <mxCell id="tNPYAR9m6L6aMUu4cvzZ-9" value="" style="rounded=0;whiteSpace=wrap;html=1;sketch=0;fillColor=#F694C1;strokeColor=#AF45ED;fontColor=#095C86;" parent="CULfx13F6MtaiZrSoTQx-1" vertex="1">
          <mxGeometry x="40" y="15" width="110" height="40" as="geometry" />
        </mxCell>
        <mxCell id="tNPYAR9m6L6aMUu4cvzZ-10" value="" style="rounded=0;whiteSpace=wrap;html=1;sketch=0;fillColor=#F694C1;strokeColor=#AF45ED;fontColor=#095C86;" parent="CULfx13F6MtaiZrSoTQx-1" vertex="1">
          <mxGeometry x="250" y="15" width="110" height="40" as="geometry" />
        </mxCell>
        <mxCell id="tNPYAR9m6L6aMUu4cvzZ-11" value="" style="rounded=0;whiteSpace=wrap;html=1;sketch=0;fillColor=#F694C1;strokeColor=#AF45ED;fontColor=#095C86;" parent="CULfx13F6MtaiZrSoTQx-1" vertex="1">
          <mxGeometry x="490" y="15" width="110" height="40" as="geometry" />
        </mxCell>
        <mxCell id="tNPYAR9m6L6aMUu4cvzZ-12" value="" style="rounded=0;whiteSpace=wrap;html=1;sketch=0;fillColor=#F694C1;strokeColor=#AF45ED;fontColor=#095C86;" parent="CULfx13F6MtaiZrSoTQx-1" vertex="1">
          <mxGeometry x="700" y="15" width="110" height="40" as="geometry" />
        </mxCell>
        <mxCell id="tNPYAR9m6L6aMUu4cvzZ-13" value="Homepage" style="text;html=1;strokeColor=none;fillColor=none;align=center;verticalAlign=middle;whiteSpace=wrap;rounded=0;sketch=0;fontColor=#095C86;" parent="CULfx13F6MtaiZrSoTQx-1" vertex="1">
          <mxGeometry x="75" y="25" width="40" height="20" as="geometry" />
        </mxCell>
        <mxCell id="tNPYAR9m6L6aMUu4cvzZ-14" value="hobbies and intrests" style="text;html=1;strokeColor=none;fillColor=none;align=center;verticalAlign=middle;whiteSpace=wrap;rounded=0;sketch=0;fontColor=#095C86;" parent="CULfx13F6MtaiZrSoTQx-1" vertex="1">
          <mxGeometry x="285" y="27.5" width="40" height="15" as="geometry" />
        </mxCell>
        <mxCell id="tNPYAR9m6L6aMUu4cvzZ-15" style="edgeStyle=orthogonalEdgeStyle;curved=0;rounded=1;sketch=0;orthogonalLoop=1;jettySize=auto;html=1;exitX=0.5;exitY=0;exitDx=0;exitDy=0;entryX=0.25;entryY=0;entryDx=0;entryDy=0;fontColor=#095C86;strokeColor=#60E696;fillColor=#F694C1;" parent="CULfx13F6MtaiZrSoTQx-1" source="tNPYAR9m6L6aMUu4cvzZ-14" target="tNPYAR9m6L6aMUu4cvzZ-14" edge="1">
          <mxGeometry relative="1" as="geometry" />
        </mxCell>
        <mxCell id="tNPYAR9m6L6aMUu4cvzZ-16" value="Culture/ethnicity" style="text;html=1;strokeColor=none;fillColor=none;align=center;verticalAlign=middle;whiteSpace=wrap;rounded=0;sketch=0;fontColor=#095C86;" parent="CULfx13F6MtaiZrSoTQx-1" vertex="1">
          <mxGeometry x="520" y="27.5" width="40" height="20" as="geometry" />
        </mxCell>
        <mxCell id="tNPYAR9m6L6aMUu4cvzZ-17" value="contact me" style="text;html=1;strokeColor=none;fillColor=none;align=center;verticalAlign=middle;whiteSpace=wrap;rounded=0;sketch=0;fontColor=#095C86;" parent="CULfx13F6MtaiZrSoTQx-1" vertex="1">
          <mxGeometry x="735" y="25" width="40" height="20" as="geometry" />
        </mxCell>
        <mxCell id="BL1K9foU-RUaJ0wJTPdV-0" value="" style="verticalLabelPosition=bottom;verticalAlign=top;html=1;shape=mxgraph.basic.rect;fillColor2=none;strokeWidth=1;size=20;indent=5;fillColor=#F694C1;strokeColor=#AF45ED;fontColor=#095C86;" parent="CULfx13F6MtaiZrSoTQx-1" vertex="1">
          <mxGeometry y="990" width="850" height="110" as="geometry" />
        </mxCell>
      </root>
    </mxGraphModel>
  </diagram>
  <diagram id="3hpoayobFnfqYQ6u2shU" name="Page-3">
    <mxGraphModel dx="1422" dy="794" grid="1" gridSize="10" guides="1" tooltips="1" connect="1" arrows="1" fold="1" page="1" pageScale="1" pageWidth="850" pageHeight="1100" math="0" shadow="0">
      <root>
        <mxCell id="VT2_FX9lmsEU5ACzugvJ-0" />
        <mxCell id="VT2_FX9lmsEU5ACzugvJ-1" parent="VT2_FX9lmsEU5ACzugvJ-0" />
        <mxCell id="GvDoFqrHfuguzvHD7N4u-0" value="" style="verticalLabelPosition=bottom;verticalAlign=top;html=1;shape=mxgraph.basic.patternFillRect;fillStyle=diag;step=5;fillStrokeWidth=0.2;fillStrokeColor=#dddddd;fillColor=#F694C1;strokeColor=#AF45ED;fontColor=#095C86;" parent="VT2_FX9lmsEU5ACzugvJ-1" vertex="1">
          <mxGeometry x="10" y="10" width="830" height="50" as="geometry" />
        </mxCell>
        <mxCell id="GvDoFqrHfuguzvHD7N4u-1" value="" style="rounded=0;whiteSpace=wrap;html=1;sketch=0;fillColor=#F694C1;strokeColor=#AF45ED;fontColor=#095C86;" parent="VT2_FX9lmsEU5ACzugvJ-1" vertex="1">
          <mxGeometry x="40" y="15" width="110" height="40" as="geometry" />
        </mxCell>
        <mxCell id="GvDoFqrHfuguzvHD7N4u-2" value="" style="rounded=0;whiteSpace=wrap;html=1;sketch=0;fillColor=#F694C1;strokeColor=#AF45ED;fontColor=#095C86;" parent="VT2_FX9lmsEU5ACzugvJ-1" vertex="1">
          <mxGeometry x="250" y="15" width="110" height="40" as="geometry" />
        </mxCell>
        <mxCell id="GvDoFqrHfuguzvHD7N4u-3" value="" style="rounded=0;whiteSpace=wrap;html=1;sketch=0;fillColor=#F694C1;strokeColor=#AF45ED;fontColor=#095C86;" parent="VT2_FX9lmsEU5ACzugvJ-1" vertex="1">
          <mxGeometry x="490" y="15" width="110" height="40" as="geometry" />
        </mxCell>
        <mxCell id="GvDoFqrHfuguzvHD7N4u-4" value="" style="rounded=0;whiteSpace=wrap;html=1;sketch=0;fillColor=#F694C1;strokeColor=#AF45ED;fontColor=#095C86;" parent="VT2_FX9lmsEU5ACzugvJ-1" vertex="1">
          <mxGeometry x="700" y="15" width="110" height="40" as="geometry" />
        </mxCell>
        <mxCell id="GvDoFqrHfuguzvHD7N4u-5" value="Homepage" style="text;html=1;strokeColor=none;fillColor=none;align=center;verticalAlign=middle;whiteSpace=wrap;rounded=0;sketch=0;fontColor=#095C86;" parent="VT2_FX9lmsEU5ACzugvJ-1" vertex="1">
          <mxGeometry x="75" y="25" width="40" height="20" as="geometry" />
        </mxCell>
        <mxCell id="GvDoFqrHfuguzvHD7N4u-6" value="hobbies and intrests" style="text;html=1;strokeColor=none;fillColor=none;align=center;verticalAlign=middle;whiteSpace=wrap;rounded=0;sketch=0;fontColor=#095C86;" parent="VT2_FX9lmsEU5ACzugvJ-1" vertex="1">
          <mxGeometry x="285" y="27.5" width="40" height="15" as="geometry" />
        </mxCell>
        <mxCell id="GvDoFqrHfuguzvHD7N4u-7" style="edgeStyle=orthogonalEdgeStyle;curved=0;rounded=1;sketch=0;orthogonalLoop=1;jettySize=auto;html=1;exitX=0.5;exitY=0;exitDx=0;exitDy=0;entryX=0.25;entryY=0;entryDx=0;entryDy=0;strokeColor=#60E696;fontColor=#095C86;" parent="VT2_FX9lmsEU5ACzugvJ-1" source="GvDoFqrHfuguzvHD7N4u-6" target="GvDoFqrHfuguzvHD7N4u-6" edge="1">
          <mxGeometry relative="1" as="geometry" />
        </mxCell>
        <mxCell id="GvDoFqrHfuguzvHD7N4u-8" value="Culture/ethnicity" style="text;html=1;strokeColor=none;fillColor=none;align=center;verticalAlign=middle;whiteSpace=wrap;rounded=0;sketch=0;fontColor=#095C86;" parent="VT2_FX9lmsEU5ACzugvJ-1" vertex="1">
          <mxGeometry x="520" y="27.5" width="40" height="20" as="geometry" />
        </mxCell>
        <mxCell id="GvDoFqrHfuguzvHD7N4u-9" value="contact me" style="text;html=1;strokeColor=none;fillColor=none;align=center;verticalAlign=middle;whiteSpace=wrap;rounded=0;sketch=0;fontColor=#095C86;" parent="VT2_FX9lmsEU5ACzugvJ-1" vertex="1">
          <mxGeometry x="735" y="25" width="40" height="20" as="geometry" />
        </mxCell>
        <mxCell id="kIeXiZXai_LvWCXx_lD7-0" value="" style="verticalLabelPosition=bottom;verticalAlign=top;html=1;shape=mxgraph.basic.rect;fillColor2=none;strokeWidth=1;size=20;indent=5;fillColor=#F694C1;strokeColor=#AF45ED;fontColor=#095C86;" parent="VT2_FX9lmsEU5ACzugvJ-1" vertex="1">
          <mxGeometry y="990" width="850" height="110" as="geometry" />
        </mxCell>
        <mxCell id="bkr_ubXAXlLZEP9CFob9-0" value="&lt;h1&gt;Heading&lt;/h1&gt;&lt;p&gt;Lorem ipsum dolor sit amet, consectetur adipisicing elit, sed do eiusmod tempor incididunt ut labore et dolore magna aliqua.&lt;/p&gt;" style="text;html=1;strokeColor=none;fillColor=none;spacing=5;spacingTop=-20;whiteSpace=wrap;overflow=hidden;rounded=0;sketch=0;fontColor=#095C86;" parent="VT2_FX9lmsEU5ACzugvJ-1" vertex="1">
          <mxGeometry x="90" y="60" width="670" height="120" as="geometry" />
        </mxCell>
        <mxCell id="bkr_ubXAXlLZEP9CFob9-1" value="" style="swimlane;startSize=0;rounded=0;sketch=0;fillColor=#F694C1;strokeColor=#AF45ED;fontColor=#095C86;" parent="VT2_FX9lmsEU5ACzugvJ-1" vertex="1">
          <mxGeometry x="80" y="160" width="690" height="740" as="geometry" />
        </mxCell>
        <mxCell id="bkr_ubXAXlLZEP9CFob9-2" value="" style="whiteSpace=wrap;html=1;aspect=fixed;rounded=0;sketch=0;fillColor=#F694C1;strokeColor=#AF45ED;fontColor=#095C86;" parent="bkr_ubXAXlLZEP9CFob9-1" vertex="1">
          <mxGeometry x="490" y="40" width="180" height="180" as="geometry" />
        </mxCell>
        <mxCell id="bkr_ubXAXlLZEP9CFob9-3" value="" style="whiteSpace=wrap;html=1;aspect=fixed;rounded=0;sketch=0;fillColor=#F694C1;strokeColor=#AF45ED;fontColor=#095C86;" parent="bkr_ubXAXlLZEP9CFob9-1" vertex="1">
          <mxGeometry x="490" y="250" width="180" height="180" as="geometry" />
        </mxCell>
        <mxCell id="bkr_ubXAXlLZEP9CFob9-4" value="" style="whiteSpace=wrap;html=1;aspect=fixed;rounded=0;sketch=0;fillColor=#F694C1;strokeColor=#AF45ED;fontColor=#095C86;" parent="bkr_ubXAXlLZEP9CFob9-1" vertex="1">
          <mxGeometry x="490" y="460" width="180" height="180" as="geometry" />
        </mxCell>
        <mxCell id="bkr_ubXAXlLZEP9CFob9-5" value="Actor" style="shape=umlActor;verticalLabelPosition=bottom;verticalAlign=top;html=1;outlineConnect=0;rounded=0;sketch=0;fillColor=#F694C1;strokeColor=#AF45ED;fontColor=#095C86;" parent="bkr_ubXAXlLZEP9CFob9-1" vertex="1">
          <mxGeometry x="650" y="680" width="30" height="60" as="geometry" />
        </mxCell>
        <mxCell id="bkr_ubXAXlLZEP9CFob9-6" value="Actor" style="shape=umlActor;verticalLabelPosition=bottom;verticalAlign=top;html=1;outlineConnect=0;rounded=0;sketch=0;fillColor=#F694C1;strokeColor=#AF45ED;fontColor=#095C86;" parent="bkr_ubXAXlLZEP9CFob9-1" vertex="1">
          <mxGeometry x="600" y="680" width="30" height="60" as="geometry" />
        </mxCell>
        <mxCell id="bkr_ubXAXlLZEP9CFob9-7" value="pictures" style="text;html=1;strokeColor=none;fillColor=none;align=center;verticalAlign=middle;whiteSpace=wrap;rounded=0;fontColor=#095C86;" parent="bkr_ubXAXlLZEP9CFob9-1" vertex="1">
          <mxGeometry x="560" y="120" width="40" height="20" as="geometry" />
        </mxCell>
        <mxCell id="bkr_ubXAXlLZEP9CFob9-8" value="pictures" style="text;html=1;strokeColor=none;fillColor=none;align=center;verticalAlign=middle;whiteSpace=wrap;rounded=0;fontColor=#095C86;" parent="bkr_ubXAXlLZEP9CFob9-1" vertex="1">
          <mxGeometry x="560" y="330" width="40" height="20" as="geometry" />
        </mxCell>
        <mxCell id="bkr_ubXAXlLZEP9CFob9-9" value="pictures" style="text;html=1;strokeColor=none;fillColor=none;align=center;verticalAlign=middle;whiteSpace=wrap;rounded=0;fontColor=#095C86;" parent="bkr_ubXAXlLZEP9CFob9-1" vertex="1">
          <mxGeometry x="560" y="540" width="40" height="20" as="geometry" />
        </mxCell>
        <mxCell id="bkr_ubXAXlLZEP9CFob9-10" value="" style="rounded=1;whiteSpace=wrap;html=1;fillColor=#F694C1;strokeColor=#AF45ED;fontColor=#095C86;" parent="bkr_ubXAXlLZEP9CFob9-1" vertex="1">
          <mxGeometry x="40" y="40" width="430" height="180" as="geometry" />
        </mxCell>
        <mxCell id="bkr_ubXAXlLZEP9CFob9-11" value="" style="rounded=1;whiteSpace=wrap;html=1;fillColor=#F694C1;strokeColor=#AF45ED;fontColor=#095C86;" parent="bkr_ubXAXlLZEP9CFob9-1" vertex="1">
          <mxGeometry x="40" y="250" width="430" height="180" as="geometry" />
        </mxCell>
        <mxCell id="bkr_ubXAXlLZEP9CFob9-12" value="" style="rounded=1;whiteSpace=wrap;html=1;fillColor=#F694C1;strokeColor=#AF45ED;fontColor=#095C86;" parent="bkr_ubXAXlLZEP9CFob9-1" vertex="1">
          <mxGeometry x="40" y="470" width="430" height="180" as="geometry" />
        </mxCell>
        <mxCell id="bkr_ubXAXlLZEP9CFob9-13" value="" style="shape=partialRectangle;whiteSpace=wrap;html=1;top=0;bottom=0;fillColor=none;rounded=0;sketch=0;fontColor=#095C86;strokeColor=#AF45ED;" parent="VT2_FX9lmsEU5ACzugvJ-1" vertex="1">
          <mxGeometry x="90" y="90" width="670" height="60" as="geometry" />
        </mxCell>
        <mxCell id="ax4QsT8iIXbT-2x1v_Mm-0" value="" style="endArrow=none;dashed=1;html=1;dashPattern=1 3;strokeWidth=2;fontColor=#095C86;fillColor=#F694C1;" parent="VT2_FX9lmsEU5ACzugvJ-1" edge="1">
          <mxGeometry width="50" height="50" relative="1" as="geometry">
            <mxPoint x="40" y="961" as="sourcePoint" />
            <mxPoint x="30" y="80" as="targetPoint" />
          </mxGeometry>
        </mxCell>
      </root>
    </mxGraphModel>
  </diagram>
  <diagram id="ovMd6wAWTr_NNAdtaLbc" name="Page-4">
    <mxGraphModel dx="1422" dy="794" grid="1" gridSize="10" guides="1" tooltips="1" connect="1" arrows="1" fold="1" page="1" pageScale="1" pageWidth="850" pageHeight="1100" math="0" shadow="0">
      <root>
        <mxCell id="fTNaYs3b2Vbnhp30fjSZ-0" />
        <mxCell id="fTNaYs3b2Vbnhp30fjSZ-1" parent="fTNaYs3b2Vbnhp30fjSZ-0" />
        <mxCell id="fTNaYs3b2Vbnhp30fjSZ-2" value="" style="verticalLabelPosition=bottom;verticalAlign=top;html=1;shape=mxgraph.basic.patternFillRect;fillStyle=diag;step=5;fillStrokeWidth=0.2;fillStrokeColor=#dddddd;fillColor=#F694C1;strokeColor=#AF45ED;fontColor=#095C86;" parent="fTNaYs3b2Vbnhp30fjSZ-1" vertex="1">
          <mxGeometry x="10" y="10" width="830" height="50" as="geometry" />
        </mxCell>
        <mxCell id="fTNaYs3b2Vbnhp30fjSZ-3" value="" style="rounded=0;whiteSpace=wrap;html=1;sketch=0;fillColor=#F694C1;strokeColor=#AF45ED;fontColor=#095C86;" parent="fTNaYs3b2Vbnhp30fjSZ-1" vertex="1">
          <mxGeometry x="40" y="15" width="110" height="40" as="geometry" />
        </mxCell>
        <mxCell id="fTNaYs3b2Vbnhp30fjSZ-4" value="" style="rounded=0;whiteSpace=wrap;html=1;sketch=0;fillColor=#F694C1;strokeColor=#AF45ED;fontColor=#095C86;" parent="fTNaYs3b2Vbnhp30fjSZ-1" vertex="1">
          <mxGeometry x="250" y="15" width="110" height="40" as="geometry" />
        </mxCell>
        <mxCell id="fTNaYs3b2Vbnhp30fjSZ-5" value="" style="rounded=0;whiteSpace=wrap;html=1;sketch=0;fillColor=#F694C1;strokeColor=#AF45ED;fontColor=#095C86;" parent="fTNaYs3b2Vbnhp30fjSZ-1" vertex="1">
          <mxGeometry x="490" y="15" width="110" height="40" as="geometry" />
        </mxCell>
        <mxCell id="fTNaYs3b2Vbnhp30fjSZ-6" value="" style="rounded=0;whiteSpace=wrap;html=1;sketch=0;fillColor=#F694C1;strokeColor=#AF45ED;fontColor=#095C86;" parent="fTNaYs3b2Vbnhp30fjSZ-1" vertex="1">
          <mxGeometry x="700" y="15" width="110" height="40" as="geometry" />
        </mxCell>
        <mxCell id="fTNaYs3b2Vbnhp30fjSZ-7" value="Homepage" style="text;html=1;strokeColor=none;fillColor=none;align=center;verticalAlign=middle;whiteSpace=wrap;rounded=0;sketch=0;fontColor=#095C86;" parent="fTNaYs3b2Vbnhp30fjSZ-1" vertex="1">
          <mxGeometry x="75" y="25" width="40" height="20" as="geometry" />
        </mxCell>
        <mxCell id="fTNaYs3b2Vbnhp30fjSZ-8" value="hobbies and intrests" style="text;html=1;strokeColor=none;fillColor=none;align=center;verticalAlign=middle;whiteSpace=wrap;rounded=0;sketch=0;fontColor=#095C86;" parent="fTNaYs3b2Vbnhp30fjSZ-1" vertex="1">
          <mxGeometry x="285" y="27.5" width="40" height="15" as="geometry" />
        </mxCell>
        <mxCell id="fTNaYs3b2Vbnhp30fjSZ-9" style="edgeStyle=orthogonalEdgeStyle;curved=0;rounded=1;sketch=0;orthogonalLoop=1;jettySize=auto;html=1;exitX=0.5;exitY=0;exitDx=0;exitDy=0;entryX=0.25;entryY=0;entryDx=0;entryDy=0;fontColor=#095C86;strokeColor=#60E696;fillColor=#F694C1;" parent="fTNaYs3b2Vbnhp30fjSZ-1" source="fTNaYs3b2Vbnhp30fjSZ-8" target="fTNaYs3b2Vbnhp30fjSZ-8" edge="1">
          <mxGeometry relative="1" as="geometry" />
        </mxCell>
        <mxCell id="fTNaYs3b2Vbnhp30fjSZ-10" value="Culture/ethnicity" style="text;html=1;strokeColor=none;fillColor=none;align=center;verticalAlign=middle;whiteSpace=wrap;rounded=0;sketch=0;fontColor=#095C86;" parent="fTNaYs3b2Vbnhp30fjSZ-1" vertex="1">
          <mxGeometry x="520" y="27.5" width="40" height="20" as="geometry" />
        </mxCell>
        <mxCell id="fTNaYs3b2Vbnhp30fjSZ-11" value="contact me" style="text;html=1;strokeColor=none;fillColor=none;align=center;verticalAlign=middle;whiteSpace=wrap;rounded=0;sketch=0;fontColor=#095C86;" parent="fTNaYs3b2Vbnhp30fjSZ-1" vertex="1">
          <mxGeometry x="735" y="25" width="40" height="20" as="geometry" />
        </mxCell>
        <mxCell id="q7-jamuf3KyTDM0ngWN0-0" value="" style="verticalLabelPosition=bottom;verticalAlign=top;html=1;shape=mxgraph.basic.rect;fillColor2=none;strokeWidth=1;size=20;indent=5;fillColor=#F694C1;strokeColor=#AF45ED;fontColor=#095C86;" parent="fTNaYs3b2Vbnhp30fjSZ-1" vertex="1">
          <mxGeometry y="990" width="850" height="110" as="geometry" />
        </mxCell>
        <mxCell id="M7B2U28NgHgT8cICzB14-0" value="" style="verticalLabelPosition=bottom;verticalAlign=top;html=1;shape=mxgraph.basic.rect;fillColor2=none;strokeWidth=1;size=20;indent=5;rounded=0;sketch=0;fontColor=#095C86;fillColor=#F694C1;" parent="fTNaYs3b2Vbnhp30fjSZ-1" vertex="1">
          <mxGeometry x="40" y="80" width="760" height="880" as="geometry" />
        </mxCell>
        <mxCell id="M7B2U28NgHgT8cICzB14-1" value="" style="verticalLabelPosition=bottom;shadow=0;dashed=0;align=center;html=1;verticalAlign=top;strokeWidth=1;shape=mxgraph.mockup.containers.userMale;strokeColor=#666666;strokeColor2=#008cff;rounded=0;sketch=0;fontColor=#095C86;fillColor=#F694C1;" parent="fTNaYs3b2Vbnhp30fjSZ-1" vertex="1">
          <mxGeometry x="60" y="110" width="170" height="150" as="geometry" />
        </mxCell>
      </root>
    </mxGraphModel>
  </diagram>
</mxfile>
